<?xml version="1.0" encoding="UTF-8" ?>
<svg version="1.1" width="320" height="320" xmlns="http://www.w3.org/2000/svg" shape-rendering="crispEdges">
<rect x="130" y="30" width="10" height="10" fill="#776E5E" />
<rect x="140" y="30" width="10" height="10" fill="#776E5E" />
<rect x="150" y="30" width="10" height="10" fill="#776E5E" />
<rect x="160" y="30" width="10" height="10" fill="#776E5E" />
<rect x="170" y="30" width="10" height="10" fill="#776E5E" />
<rect x="180" y="30" width="10" height="10" fill="#776E5E" />
<rect x="110" y="40" width="10" height="10" fill="#776E5E" />
<rect x="120" y="40" width="10" height="10" fill="#776E5E" />
<rect x="130" y="40" width="10" height="10" fill="#9B966F" />
<rect x="140" y="40" width="10" height="10" fill="#9B966F" />
<rect x="150" y="40" width="10" height="10" fill="#9B966F" />
<rect x="160" y="40" width="10" height="10" fill="#9B966F" />
<rect x="170" y="40" width="10" height="10" fill="#9B966F" />
<rect x="180" y="40" width="10" height="10" fill="#9B966F" />
<rect x="190" y="40" width="10" height="10" fill="#776E5E" />
<rect x="200" y="40" width="10" height="10" fill="#776E5E" />
<rect x="100" y="50" width="10" height="10" fill="#776E5E" />
<rect x="110" y="50" width="10" height="10" fill="#9B966F" />
<rect x="120" y="50" width="10" height="10" fill="#9B966F" />
<rect x="130" y="50" width="10" height="10" fill="#9B966F" />
<rect x="140" y="50" width="10" height="10" fill="#9B966F" />
<rect x="150" y="50" width="10" height="10" fill="#D4C169" />
<rect x="160" y="50" width="10" height="10" fill="#D4C169" />
<rect x="170" y="50" width="10" height="10" fill="#D4C169" />
<rect x="180" y="50" width="10" height="10" fill="#D4C169" />
<rect x="190" y="50" width="10" height="10" fill="#D4C169" />
<rect x="200" y="50" width="10" height="10" fill="#D4C169" />
<rect x="210" y="50" width="10" height="10" fill="#957A4B" />
<rect x="90" y="60" width="10" height="10" fill="#776E5E" />
<rect x="100" y="60" width="10" height="10" fill="#9B966F" />
<rect x="110" y="60" width="10" height="10" fill="#9B966F" />
<rect x="120" y="60" width="10" height="10" fill="#9B966F" />
<rect x="130" y="60" width="10" height="10" fill="#9B966F" />
<rect x="140" y="60" width="10" height="10" fill="#9B966F" />
<rect x="150" y="60" width="10" height="10" fill="#9B966F" />
<rect x="160" y="60" width="10" height="10" fill="#9B966F" />
<rect x="170" y="60" width="10" height="10" fill="#D4C169" />
<rect x="180" y="60" width="10" height="10" fill="#D4C169" />
<rect x="190" y="60" width="10" height="10" fill="#D4C169" />
<rect x="200" y="60" width="10" height="10" fill="#D4C169" />
<rect x="210" y="60" width="10" height="10" fill="#D4C169" />
<rect x="220" y="60" width="10" height="10" fill="#957A4B" />
<rect x="80" y="70" width="10" height="10" fill="#776E5E" />
<rect x="90" y="70" width="10" height="10" fill="#9B966F" />
<rect x="100" y="70" width="10" height="10" fill="#9B966F" />
<rect x="110" y="70" width="10" height="10" fill="#9B966F" />
<rect x="120" y="70" width="10" height="10" fill="#9B966F" />
<rect x="130" y="70" width="10" height="10" fill="#E8EEAA" />
<rect x="140" y="70" width="10" height="10" fill="#E8EEAA" />
<rect x="150" y="70" width="10" height="10" fill="#E8EEAA" />
<rect x="160" y="70" width="10" height="10" fill="#E8EEAA" />
<rect x="170" y="70" width="10" height="10" fill="#E8EEAA" />
<rect x="180" y="70" width="10" height="10" fill="#E8EEAA" />
<rect x="190" y="70" width="10" height="10" fill="#D4C169" />
<rect x="200" y="70" width="10" height="10" fill="#D4C169" />
<rect x="210" y="70" width="10" height="10" fill="#D4C169" />
<rect x="220" y="70" width="10" height="10" fill="#D4C169" />
<rect x="230" y="70" width="10" height="10" fill="#957A4B" />
<rect x="70" y="80" width="10" height="10" fill="#776E5E" />
<rect x="80" y="80" width="10" height="10" fill="#9B966F" />
<rect x="90" y="80" width="10" height="10" fill="#9B966F" />
<rect x="100" y="80" width="10" height="10" fill="#9B966F" />
<rect x="110" y="80" width="10" height="10" fill="#9B966F" />
<rect x="120" y="80" width="10" height="10" fill="#E8EEAA" />
<rect x="130" y="80" width="10" height="10" fill="#E8EEAA" />
<rect x="140" y="80" width="10" height="10" fill="#566560" />
<rect x="150" y="80" width="10" height="10" fill="#566560" />
<rect x="160" y="80" width="10" height="10" fill="#566560" />
<rect x="170" y="80" width="10" height="10" fill="#566560" />
<rect x="180" y="80" width="10" height="10" fill="#E8EEAA" />
<rect x="190" y="80" width="10" height="10" fill="#E8EEAA" />
<rect x="200" y="80" width="10" height="10" fill="#D4C169" />
<rect x="210" y="80" width="10" height="10" fill="#E1D68F" />
<rect x="220" y="80" width="10" height="10" fill="#D4C169" />
<rect x="230" y="80" width="10" height="10" fill="#D4C169" />
<rect x="240" y="80" width="10" height="10" fill="#957A4B" />
<rect x="70" y="90" width="10" height="10" fill="#776E5E" />
<rect x="80" y="90" width="10" height="10" fill="#9B966F" />
<rect x="90" y="90" width="10" height="10" fill="#9B966F" />
<rect x="100" y="90" width="10" height="10" fill="#9B966F" />
<rect x="110" y="90" width="10" height="10" fill="#9B966F" />
<rect x="120" y="90" width="10" height="10" fill="#E8EEAA" />
<rect x="130" y="90" width="10" height="10" fill="#566560" />
<rect x="140" y="90" width="10" height="10" fill="#DCE0D2" />
<rect x="150" y="90" width="10" height="10" fill="#353738" />
<rect x="160" y="90" width="10" height="10" fill="#353738" />
<rect x="170" y="90" width="10" height="10" fill="#DCE0D2" />
<rect x="180" y="90" width="10" height="10" fill="#566560" />
<rect x="190" y="90" width="10" height="10" fill="#E8EEAA" />
<rect x="200" y="90" width="10" height="10" fill="#D4C169" />
<rect x="210" y="90" width="10" height="10" fill="#D4C169" />
<rect x="220" y="90" width="10" height="10" fill="#E1D68F" />
<rect x="230" y="90" width="10" height="10" fill="#D4C169" />
<rect x="240" y="90" width="10" height="10" fill="#957A4B" />
<rect x="70" y="100" width="10" height="10" fill="#776E5E" />
<rect x="80" y="100" width="10" height="10" fill="#9B966F" />
<rect x="90" y="100" width="10" height="10" fill="#9B966F" />
<rect x="100" y="100" width="10" height="10" fill="#9B966F" />
<rect x="110" y="100" width="10" height="10" fill="#9B966F" />
<rect x="120" y="100" width="10" height="10" fill="#E8EEAA" />
<rect x="130" y="100" width="10" height="10" fill="#E8EEAA" />
<rect x="140" y="100" width="10" height="10" fill="#566560" />
<rect x="150" y="100" width="10" height="10" fill="#566560" />
<rect x="160" y="100" width="10" height="10" fill="#566560" />
<rect x="170" y="100" width="10" height="10" fill="#566560" />
<rect x="180" y="100" width="10" height="10" fill="#E8EEAA" />
<rect x="190" y="100" width="10" height="10" fill="#E8EEAA" />
<rect x="200" y="100" width="10" height="10" fill="#D4C169" />
<rect x="210" y="100" width="10" height="10" fill="#D4C169" />
<rect x="220" y="100" width="10" height="10" fill="#E1D68F" />
<rect x="230" y="100" width="10" height="10" fill="#D4C169" />
<rect x="240" y="100" width="10" height="10" fill="#957A4B" />
<rect x="70" y="110" width="10" height="10" fill="#776E5E" />
<rect x="80" y="110" width="10" height="10" fill="#9B966F" />
<rect x="90" y="110" width="10" height="10" fill="#9B966F" />
<rect x="100" y="110" width="10" height="10" fill="#9B966F" />
<rect x="110" y="110" width="10" height="10" fill="#9B966F" />
<rect x="120" y="110" width="10" height="10" fill="#9B966F" />
<rect x="130" y="110" width="10" height="10" fill="#E8EEAA" />
<rect x="140" y="110" width="10" height="10" fill="#E8EEAA" />
<rect x="150" y="110" width="10" height="10" fill="#E8EEAA" />
<rect x="160" y="110" width="10" height="10" fill="#E8EEAA" />
<rect x="170" y="110" width="10" height="10" fill="#E8EEAA" />
<rect x="180" y="110" width="10" height="10" fill="#E8EEAA" />
<rect x="190" y="110" width="10" height="10" fill="#D4C169" />
<rect x="200" y="110" width="10" height="10" fill="#D4C169" />
<rect x="210" y="110" width="10" height="10" fill="#D4C169" />
<rect x="220" y="110" width="10" height="10" fill="#D4C169" />
<rect x="230" y="110" width="10" height="10" fill="#D4C169" />
<rect x="240" y="110" width="10" height="10" fill="#957A4B" />
<rect x="80" y="120" width="10" height="10" fill="#776E5E" />
<rect x="90" y="120" width="10" height="10" fill="#9B966F" />
<rect x="100" y="120" width="10" height="10" fill="#9B966F" />
<rect x="110" y="120" width="10" height="10" fill="#9B966F" />
<rect x="120" y="120" width="10" height="10" fill="#9B966F" />
<rect x="130" y="120" width="10" height="10" fill="#9B966F" />
<rect x="140" y="120" width="10" height="10" fill="#9B966F" />
<rect x="150" y="120" width="10" height="10" fill="#D4C169" />
<rect x="160" y="120" width="10" height="10" fill="#D4C169" />
<rect x="170" y="120" width="10" height="10" fill="#D4C169" />
<rect x="180" y="120" width="10" height="10" fill="#D4C169" />
<rect x="190" y="120" width="10" height="10" fill="#D4C169" />
<rect x="200" y="120" width="10" height="10" fill="#E1D68F" />
<rect x="210" y="120" width="10" height="10" fill="#E1D68F" />
<rect x="220" y="120" width="10" height="10" fill="#D4C169" />
<rect x="230" y="120" width="10" height="10" fill="#957A4B" />
<rect x="90" y="130" width="10" height="10" fill="#776E5E" />
<rect x="100" y="130" width="10" height="10" fill="#9B966F" />
<rect x="110" y="130" width="10" height="10" fill="#9B966F" />
<rect x="120" y="130" width="10" height="10" fill="#D4C169" />
<rect x="130" y="130" width="10" height="10" fill="#D4C169" />
<rect x="140" y="130" width="10" height="10" fill="#D4C169" />
<rect x="150" y="130" width="10" height="10" fill="#D4C169" />
<rect x="160" y="130" width="10" height="10" fill="#D4C169" />
<rect x="170" y="130" width="10" height="10" fill="#D4C169" />
<rect x="180" y="130" width="10" height="10" fill="#E1D68F" />
<rect x="190" y="130" width="10" height="10" fill="#E1D68F" />
<rect x="200" y="130" width="10" height="10" fill="#D4C169" />
<rect x="210" y="130" width="10" height="10" fill="#D4C169" />
<rect x="220" y="130" width="10" height="10" fill="#957A4B" />
<rect x="80" y="140" width="10" height="10" fill="#776E5E" />
<rect x="90" y="140" width="10" height="10" fill="#9B966F" />
<rect x="100" y="140" width="10" height="10" fill="#957A4B" />
<rect x="110" y="140" width="10" height="10" fill="#D4C169" />
<rect x="120" y="140" width="10" height="10" fill="#D4C169" />
<rect x="130" y="140" width="10" height="10" fill="#D4C169" />
<rect x="140" y="140" width="10" height="10" fill="#D4C169" />
<rect x="150" y="140" width="10" height="10" fill="#D4C169" />
<rect x="160" y="140" width="10" height="10" fill="#D4C169" />
<rect x="170" y="140" width="10" height="10" fill="#D4C169" />
<rect x="180" y="140" width="10" height="10" fill="#D4C169" />
<rect x="190" y="140" width="10" height="10" fill="#D4C169" />
<rect x="200" y="140" width="10" height="10" fill="#D4C169" />
<rect x="210" y="140" width="10" height="10" fill="#957A4B" />
<rect x="220" y="140" width="10" height="10" fill="#9B966F" />
<rect x="230" y="140" width="10" height="10" fill="#776E5E" />
<rect x="70" y="150" width="10" height="10" fill="#776E5E" />
<rect x="80" y="150" width="10" height="10" fill="#9B966F" />
<rect x="90" y="150" width="10" height="10" fill="#9B966F" />
<rect x="100" y="150" width="10" height="10" fill="#9B966F" />
<rect x="110" y="150" width="10" height="10" fill="#957A4B" />
<rect x="120" y="150" width="10" height="10" fill="#957A4B" />
<rect x="130" y="150" width="10" height="10" fill="#D4C169" />
<rect x="140" y="150" width="10" height="10" fill="#D4C169" />
<rect x="150" y="150" width="10" height="10" fill="#D4C169" />
<rect x="160" y="150" width="10" height="10" fill="#D4C169" />
<rect x="170" y="150" width="10" height="10" fill="#D4C169" />
<rect x="180" y="150" width="10" height="10" fill="#D4C169" />
<rect x="190" y="150" width="10" height="10" fill="#957A4B" />
<rect x="200" y="150" width="10" height="10" fill="#957A4B" />
<rect x="210" y="150" width="10" height="10" fill="#9B966F" />
<rect x="220" y="150" width="10" height="10" fill="#9B966F" />
<rect x="230" y="150" width="10" height="10" fill="#776E5E" />
<rect x="70" y="160" width="10" height="10" fill="#776E5E" />
<rect x="80" y="160" width="10" height="10" fill="#9B966F" />
<rect x="90" y="160" width="10" height="10" fill="#A6AF94" />
<rect x="100" y="160" width="10" height="10" fill="#9B966F" />
<rect x="110" y="160" width="10" height="10" fill="#9B966F" />
<rect x="120" y="160" width="10" height="10" fill="#957A4B" />
<rect x="130" y="160" width="10" height="10" fill="#957A4B" />
<rect x="140" y="160" width="10" height="10" fill="#957A4B" />
<rect x="150" y="160" width="10" height="10" fill="#957A4B" />
<rect x="160" y="160" width="10" height="10" fill="#957A4B" />
<rect x="170" y="160" width="10" height="10" fill="#957A4B" />
<rect x="180" y="160" width="10" height="10" fill="#957A4B" />
<rect x="190" y="160" width="10" height="10" fill="#957A4B" />
<rect x="200" y="160" width="10" height="10" fill="#9B966F" />
<rect x="210" y="160" width="10" height="10" fill="#A6AF94" />
<rect x="220" y="160" width="10" height="10" fill="#9B966F" />
<rect x="230" y="160" width="10" height="10" fill="#776E5E" />
<rect x="60" y="170" width="10" height="10" fill="#776E5E" />
<rect x="70" y="170" width="10" height="10" fill="#9B966F" />
<rect x="80" y="170" width="10" height="10" fill="#9B966F" />
<rect x="90" y="170" width="10" height="10" fill="#9B966F" />
<rect x="100" y="170" width="10" height="10" fill="#D4C169" />
<rect x="110" y="170" width="10" height="10" fill="#957A4B" />
<rect x="190" y="170" width="10" height="10" fill="#776E5E" />
<rect x="200" y="170" width="10" height="10" fill="#9B966F" />
<rect x="210" y="170" width="10" height="10" fill="#9B966F" />
<rect x="220" y="170" width="10" height="10" fill="#E8EEAA" />
<rect x="230" y="170" width="10" height="10" fill="#D4C169" />
<rect x="240" y="170" width="10" height="10" fill="#957A4B" />
<rect x="50" y="180" width="10" height="10" fill="#776E5E" />
<rect x="60" y="180" width="10" height="10" fill="#9B966F" />
<rect x="70" y="180" width="10" height="10" fill="#9B966F" />
<rect x="80" y="180" width="10" height="10" fill="#A6AF94" />
<rect x="90" y="180" width="10" height="10" fill="#D4C169" />
<rect x="100" y="180" width="10" height="10" fill="#957A4B" />
<rect x="200" y="180" width="10" height="10" fill="#776E5E" />
<rect x="210" y="180" width="10" height="10" fill="#9B966F" />
<rect x="220" y="180" width="10" height="10" fill="#E8EEAA" />
<rect x="230" y="180" width="10" height="10" fill="#D4C169" />
<rect x="240" y="180" width="10" height="10" fill="#957A4B" />
<rect x="50" y="190" width="10" height="10" fill="#776E5E" />
<rect x="60" y="190" width="10" height="10" fill="#9B966F" />
<rect x="70" y="190" width="10" height="10" fill="#A6AF94" />
<rect x="80" y="190" width="10" height="10" fill="#D4C169" />
<rect x="90" y="190" width="10" height="10" fill="#D4C169" />
<rect x="100" y="190" width="10" height="10" fill="#957A4B" />
<rect x="200" y="190" width="10" height="10" fill="#776E5E" />
<rect x="210" y="190" width="10" height="10" fill="#9B966F" />
<rect x="220" y="190" width="10" height="10" fill="#E8EEAA" />
<rect x="230" y="190" width="10" height="10" fill="#D4C169" />
<rect x="240" y="190" width="10" height="10" fill="#957A4B" />
<rect x="50" y="200" width="10" height="10" fill="#776E5E" />
<rect x="60" y="200" width="10" height="10" fill="#9B966F" />
<rect x="70" y="200" width="10" height="10" fill="#E8EEAA" />
<rect x="80" y="200" width="10" height="10" fill="#D4C169" />
<rect x="90" y="200" width="10" height="10" fill="#957A4B" />
<rect x="200" y="200" width="10" height="10" fill="#776E5E" />
<rect x="210" y="200" width="10" height="10" fill="#9B966F" />
<rect x="220" y="200" width="10" height="10" fill="#E8EEAA" />
<rect x="230" y="200" width="10" height="10" fill="#D4C169" />
<rect x="240" y="200" width="10" height="10" fill="#E1D68F" />
<rect x="250" y="200" width="10" height="10" fill="#957A4B" />
<rect x="50" y="210" width="10" height="10" fill="#957A4B" />
<rect x="60" y="210" width="10" height="10" fill="#D4C169" />
<rect x="70" y="210" width="10" height="10" fill="#E8EEAA" />
<rect x="80" y="210" width="10" height="10" fill="#D4C169" />
<rect x="90" y="210" width="10" height="10" fill="#957A4B" />
<rect x="200" y="210" width="10" height="10" fill="#776E5E" />
<rect x="210" y="210" width="10" height="10" fill="#9B966F" />
<rect x="220" y="210" width="10" height="10" fill="#D4C169" />
<rect x="230" y="210" width="10" height="10" fill="#E8EEAA" />
<rect x="240" y="210" width="10" height="10" fill="#E1D68F" />
<rect x="250" y="210" width="10" height="10" fill="#957A4B" />
<rect x="50" y="220" width="10" height="10" fill="#957A4B" />
<rect x="60" y="220" width="10" height="10" fill="#D4C169" />
<rect x="70" y="220" width="10" height="10" fill="#E8EEAA" />
<rect x="80" y="220" width="10" height="10" fill="#D4C169" />
<rect x="90" y="220" width="10" height="10" fill="#957A4B" />
<rect x="100" y="220" width="10" height="10" fill="#957A4B" />
<rect x="110" y="220" width="10" height="10" fill="#957A4B" />
<rect x="170" y="220" width="10" height="10" fill="#776E5E" />
<rect x="180" y="220" width="10" height="10" fill="#776E5E" />
<rect x="210" y="220" width="10" height="10" fill="#957A4B" />
<rect x="220" y="220" width="10" height="10" fill="#D4C169" />
<rect x="230" y="220" width="10" height="10" fill="#E8EEAA" />
<rect x="240" y="220" width="10" height="10" fill="#D4C169" />
<rect x="250" y="220" width="10" height="10" fill="#957A4B" />
<rect x="60" y="230" width="10" height="10" fill="#957A4B" />
<rect x="70" y="230" width="10" height="10" fill="#D4C169" />
<rect x="80" y="230" width="10" height="10" fill="#E8EEAA" />
<rect x="90" y="230" width="10" height="10" fill="#D4C169" />
<rect x="100" y="230" width="10" height="10" fill="#D4C169" />
<rect x="110" y="230" width="10" height="10" fill="#D4C169" />
<rect x="120" y="230" width="10" height="10" fill="#957A4B" />
<rect x="160" y="230" width="10" height="10" fill="#776E5E" />
<rect x="170" y="230" width="10" height="10" fill="#9B966F" />
<rect x="180" y="230" width="10" height="10" fill="#9B966F" />
<rect x="190" y="230" width="10" height="10" fill="#957A4B" />
<rect x="200" y="230" width="10" height="10" fill="#957A4B" />
<rect x="210" y="230" width="10" height="10" fill="#957A4B" />
<rect x="220" y="230" width="10" height="10" fill="#D4C169" />
<rect x="230" y="230" width="10" height="10" fill="#D4C169" />
<rect x="240" y="230" width="10" height="10" fill="#D4C169" />
<rect x="250" y="230" width="10" height="10" fill="#957A4B" />
<rect x="60" y="240" width="10" height="10" fill="#957A4B" />
<rect x="70" y="240" width="10" height="10" fill="#D4C169" />
<rect x="80" y="240" width="10" height="10" fill="#D4C169" />
<rect x="90" y="240" width="10" height="10" fill="#E8EEAA" />
<rect x="100" y="240" width="10" height="10" fill="#E8EEAA" />
<rect x="110" y="240" width="10" height="10" fill="#D4C169" />
<rect x="120" y="240" width="10" height="10" fill="#E1D68F" />
<rect x="130" y="240" width="10" height="10" fill="#957A4B" />
<rect x="160" y="240" width="10" height="10" fill="#776E5E" />
<rect x="170" y="240" width="10" height="10" fill="#9B966F" />
<rect x="180" y="240" width="10" height="10" fill="#A6AF94" />
<rect x="190" y="240" width="10" height="10" fill="#D4C169" />
<rect x="200" y="240" width="10" height="10" fill="#D4C169" />
<rect x="210" y="240" width="10" height="10" fill="#D4C169" />
<rect x="220" y="240" width="10" height="10" fill="#D4C169" />
<rect x="230" y="240" width="10" height="10" fill="#E8EEAA" />
<rect x="240" y="240" width="10" height="10" fill="#D4C169" />
<rect x="250" y="240" width="10" height="10" fill="#957A4B" />
<rect x="70" y="250" width="10" height="10" fill="#957A4B" />
<rect x="80" y="250" width="10" height="10" fill="#D4C169" />
<rect x="90" y="250" width="10" height="10" fill="#D4C169" />
<rect x="100" y="250" width="10" height="10" fill="#D4C169" />
<rect x="110" y="250" width="10" height="10" fill="#E1D68F" />
<rect x="120" y="250" width="10" height="10" fill="#E1D68F" />
<rect x="130" y="250" width="10" height="10" fill="#957A4B" />
<rect x="160" y="250" width="10" height="10" fill="#776E5E" />
<rect x="170" y="250" width="10" height="10" fill="#9B966F" />
<rect x="180" y="250" width="10" height="10" fill="#D4C169" />
<rect x="190" y="250" width="10" height="10" fill="#D4C169" />
<rect x="200" y="250" width="10" height="10" fill="#E8EEAA" />
<rect x="210" y="250" width="10" height="10" fill="#E8EEAA" />
<rect x="220" y="250" width="10" height="10" fill="#E8EEAA" />
<rect x="230" y="250" width="10" height="10" fill="#D4C169" />
<rect x="240" y="250" width="10" height="10" fill="#D4C169" />
<rect x="250" y="250" width="10" height="10" fill="#957A4B" />
<rect x="80" y="260" width="10" height="10" fill="#957A4B" />
<rect x="90" y="260" width="10" height="10" fill="#957A4B" />
<rect x="100" y="260" width="10" height="10" fill="#957A4B" />
<rect x="110" y="260" width="10" height="10" fill="#957A4B" />
<rect x="120" y="260" width="10" height="10" fill="#957A4B" />
<rect x="170" y="260" width="10" height="10" fill="#957A4B" />
<rect x="180" y="260" width="10" height="10" fill="#957A4B" />
<rect x="190" y="260" width="10" height="10" fill="#D4C169" />
<rect x="200" y="260" width="10" height="10" fill="#D4C169" />
<rect x="210" y="260" width="10" height="10" fill="#D4C169" />
<rect x="220" y="260" width="10" height="10" fill="#D4C169" />
<rect x="230" y="260" width="10" height="10" fill="#957A4B" />
<rect x="240" y="260" width="10" height="10" fill="#957A4B" />
<rect x="190" y="270" width="10" height="10" fill="#957A4B" />
<rect x="200" y="270" width="10" height="10" fill="#957A4B" />
<rect x="210" y="270" width="10" height="10" fill="#957A4B" />
<rect x="220" y="270" width="10" height="10" fill="#957A4B" />
</svg>