<?xml version="1.0" encoding="UTF-8" ?>
<svg version="1.1" width="320" height="320" xmlns="http://www.w3.org/2000/svg" shape-rendering="crispEdges">
<rect x="70" y="10" width="10" height="10" fill="#7A5F6C" />
<rect x="80" y="10" width="10" height="10" fill="#7A5F6C" />
<rect x="60" y="20" width="10" height="10" fill="#7A5F6C" />
<rect x="70" y="20" width="10" height="10" fill="#90835B" />
<rect x="80" y="20" width="10" height="10" fill="#90835B" />
<rect x="90" y="20" width="10" height="10" fill="#7A5F6C" />
<rect x="100" y="20" width="10" height="10" fill="#7A5F6C" />
<rect x="120" y="20" width="10" height="10" fill="#7A5F6C" />
<rect x="130" y="20" width="10" height="10" fill="#7A5F6C" />
<rect x="140" y="20" width="10" height="10" fill="#7A5F6C" />
<rect x="150" y="20" width="10" height="10" fill="#7A5F6C" />
<rect x="160" y="20" width="10" height="10" fill="#7A5F6C" />
<rect x="60" y="30" width="10" height="10" fill="#7A5F6C" />
<rect x="70" y="30" width="10" height="10" fill="#90835B" />
<rect x="80" y="30" width="10" height="10" fill="#90835B" />
<rect x="90" y="30" width="10" height="10" fill="#90835B" />
<rect x="100" y="30" width="10" height="10" fill="#90835B" />
<rect x="110" y="30" width="10" height="10" fill="#7A5F6C" />
<rect x="120" y="30" width="10" height="10" fill="#BABE97" />
<rect x="130" y="30" width="10" height="10" fill="#BABE97" />
<rect x="140" y="30" width="10" height="10" fill="#BABE97" />
<rect x="150" y="30" width="10" height="10" fill="#BABE97" />
<rect x="160" y="30" width="10" height="10" fill="#BABE97" />
<rect x="170" y="30" width="10" height="10" fill="#7A5F6C" />
<rect x="200" y="30" width="10" height="10" fill="#90625D" />
<rect x="210" y="30" width="10" height="10" fill="#90625D" />
<rect x="70" y="40" width="10" height="10" fill="#7A5F6C" />
<rect x="80" y="40" width="10" height="10" fill="#7A5F6C" />
<rect x="90" y="40" width="10" height="10" fill="#90835B" />
<rect x="100" y="40" width="10" height="10" fill="#7A5F6C" />
<rect x="110" y="40" width="10" height="10" fill="#BABE97" />
<rect x="120" y="40" width="10" height="10" fill="#BABE97" />
<rect x="130" y="40" width="10" height="10" fill="#BABE97" />
<rect x="140" y="40" width="10" height="10" fill="#BABE97" />
<rect x="150" y="40" width="10" height="10" fill="#EEEE9B" />
<rect x="160" y="40" width="10" height="10" fill="#EEEE9B" />
<rect x="170" y="40" width="10" height="10" fill="#EEEE9B" />
<rect x="180" y="40" width="10" height="10" fill="#90625D" />
<rect x="190" y="40" width="10" height="10" fill="#90625D" />
<rect x="200" y="40" width="10" height="10" fill="#B09643" />
<rect x="210" y="40" width="10" height="10" fill="#B09643" />
<rect x="220" y="40" width="10" height="10" fill="#90625D" />
<rect x="90" y="50" width="10" height="10" fill="#7A5F6C" />
<rect x="100" y="50" width="10" height="10" fill="#BABE97" />
<rect x="110" y="50" width="10" height="10" fill="#BABE97" />
<rect x="120" y="50" width="10" height="10" fill="#EEEE9B" />
<rect x="130" y="50" width="10" height="10" fill="#EEEE9B" />
<rect x="140" y="50" width="10" height="10" fill="#EEEE9B" />
<rect x="150" y="50" width="10" height="10" fill="#EEEE9B" />
<rect x="160" y="50" width="10" height="10" fill="#EEEE9B" />
<rect x="170" y="50" width="10" height="10" fill="#EEEE9B" />
<rect x="180" y="50" width="10" height="10" fill="#EEEE9B" />
<rect x="190" y="50" width="10" height="10" fill="#90625D" />
<rect x="200" y="50" width="10" height="10" fill="#B09643" />
<rect x="210" y="50" width="10" height="10" fill="#B09643" />
<rect x="220" y="50" width="10" height="10" fill="#90625D" />
<rect x="20" y="60" width="10" height="10" fill="#7A5F6C" />
<rect x="30" y="60" width="10" height="10" fill="#7A5F6C" />
<rect x="90" y="60" width="10" height="10" fill="#7A5F6C" />
<rect x="100" y="60" width="10" height="10" fill="#BABE97" />
<rect x="110" y="60" width="10" height="10" fill="#BABE97" />
<rect x="120" y="60" width="10" height="10" fill="#EEEE9B" />
<rect x="130" y="60" width="10" height="10" fill="#D99A9A" />
<rect x="140" y="60" width="10" height="10" fill="#D99A9A" />
<rect x="150" y="60" width="10" height="10" fill="#EEEE9B" />
<rect x="160" y="60" width="10" height="10" fill="#EEEE9B" />
<rect x="170" y="60" width="10" height="10" fill="#EEEE9B" />
<rect x="180" y="60" width="10" height="10" fill="#EEEE9B" />
<rect x="190" y="60" width="10" height="10" fill="#90625D" />
<rect x="200" y="60" width="10" height="10" fill="#B09643" />
<rect x="210" y="60" width="10" height="10" fill="#90625D" />
<rect x="10" y="70" width="10" height="10" fill="#7A5F6C" />
<rect x="20" y="70" width="10" height="10" fill="#B7B57F" />
<rect x="30" y="70" width="10" height="10" fill="#B7B57F" />
<rect x="40" y="70" width="10" height="10" fill="#90625D" />
<rect x="90" y="70" width="10" height="10" fill="#7A5F6C" />
<rect x="100" y="70" width="10" height="10" fill="#BABE97" />
<rect x="110" y="70" width="10" height="10" fill="#EEEE9B" />
<rect x="120" y="70" width="10" height="10" fill="#EEEE9B" />
<rect x="130" y="70" width="10" height="10" fill="#F3F2C0" />
<rect x="140" y="70" width="10" height="10" fill="#A35B70" />
<rect x="150" y="70" width="10" height="10" fill="#EEEE9B" />
<rect x="160" y="70" width="10" height="10" fill="#D99A9A" />
<rect x="170" y="70" width="10" height="10" fill="#D99A9A" />
<rect x="180" y="70" width="10" height="10" fill="#EEEE9B" />
<rect x="190" y="70" width="10" height="10" fill="#90625D" />
<rect x="200" y="70" width="10" height="10" fill="#90625D" />
<rect x="10" y="80" width="10" height="10" fill="#7A5F6C" />
<rect x="20" y="80" width="10" height="10" fill="#B7B57F" />
<rect x="30" y="80" width="10" height="10" fill="#B7B57F" />
<rect x="40" y="80" width="10" height="10" fill="#EAE178" />
<rect x="50" y="80" width="10" height="10" fill="#90625D" />
<rect x="80" y="80" width="10" height="10" fill="#7A5F6C" />
<rect x="90" y="80" width="10" height="10" fill="#7A5F6C" />
<rect x="100" y="80" width="10" height="10" fill="#BABE97" />
<rect x="110" y="80" width="10" height="10" fill="#EEEE9B" />
<rect x="120" y="80" width="10" height="10" fill="#EEEE9B" />
<rect x="130" y="80" width="10" height="10" fill="#EEEE9B" />
<rect x="140" y="80" width="10" height="10" fill="#EEEE9B" />
<rect x="150" y="80" width="10" height="10" fill="#EEEE9B" />
<rect x="160" y="80" width="10" height="10" fill="#A35B70" />
<rect x="170" y="80" width="10" height="10" fill="#F3F2C0" />
<rect x="180" y="80" width="10" height="10" fill="#EEEE9B" />
<rect x="190" y="80" width="10" height="10" fill="#90625D" />
<rect x="260" y="80" width="10" height="10" fill="#7A5F6C" />
<rect x="270" y="80" width="10" height="10" fill="#7A5F6C" />
<rect x="20" y="90" width="10" height="10" fill="#7A5F6C" />
<rect x="30" y="90" width="10" height="10" fill="#B7B57F" />
<rect x="40" y="90" width="10" height="10" fill="#90625D" />
<rect x="70" y="90" width="10" height="10" fill="#7A5F6C" />
<rect x="80" y="90" width="10" height="10" fill="#A8A074" />
<rect x="90" y="90" width="10" height="10" fill="#7A5F6C" />
<rect x="100" y="90" width="10" height="10" fill="#BABE97" />
<rect x="110" y="90" width="10" height="10" fill="#EEEE9B" />
<rect x="120" y="90" width="10" height="10" fill="#EEEE9B" />
<rect x="130" y="90" width="10" height="10" fill="#BD757E" />
<rect x="140" y="90" width="10" height="10" fill="#BD757E" />
<rect x="150" y="90" width="10" height="10" fill="#EEEE9B" />
<rect x="160" y="90" width="10" height="10" fill="#EEEE9B" />
<rect x="170" y="90" width="10" height="10" fill="#EEEE9B" />
<rect x="180" y="90" width="10" height="10" fill="#EEEE9B" />
<rect x="190" y="90" width="10" height="10" fill="#90625D" />
<rect x="250" y="90" width="10" height="10" fill="#7A5F6C" />
<rect x="260" y="90" width="10" height="10" fill="#B7B57F" />
<rect x="270" y="90" width="10" height="10" fill="#B7B57F" />
<rect x="280" y="90" width="10" height="10" fill="#7A5F6C" />
<rect x="10" y="100" width="10" height="10" fill="#7A5F6C" />
<rect x="20" y="100" width="10" height="10" fill="#B7B57F" />
<rect x="30" y="100" width="10" height="10" fill="#EAE178" />
<rect x="40" y="100" width="10" height="10" fill="#90625D" />
<rect x="60" y="100" width="10" height="10" fill="#7A5F6C" />
<rect x="70" y="100" width="10" height="10" fill="#A8A074" />
<rect x="80" y="100" width="10" height="10" fill="#A8A074" />
<rect x="90" y="100" width="10" height="10" fill="#A8A074" />
<rect x="100" y="100" width="10" height="10" fill="#7A5F6C" />
<rect x="110" y="100" width="10" height="10" fill="#EEEE9B" />
<rect x="120" y="100" width="10" height="10" fill="#EEEE9B" />
<rect x="130" y="100" width="10" height="10" fill="#EEEE9B" />
<rect x="140" y="100" width="10" height="10" fill="#BD757E" />
<rect x="150" y="100" width="10" height="10" fill="#BD757E" />
<rect x="160" y="100" width="10" height="10" fill="#EEEE9B" />
<rect x="170" y="100" width="10" height="10" fill="#EEEE9B" />
<rect x="180" y="100" width="10" height="10" fill="#EEEE9B" />
<rect x="190" y="100" width="10" height="10" fill="#90625D" />
<rect x="250" y="100" width="10" height="10" fill="#7A5F6C" />
<rect x="260" y="100" width="10" height="10" fill="#B7B57F" />
<rect x="270" y="100" width="10" height="10" fill="#EAE178" />
<rect x="280" y="100" width="10" height="10" fill="#90625D" />
<rect x="10" y="110" width="10" height="10" fill="#7A5F6C" />
<rect x="20" y="110" width="10" height="10" fill="#B7B57F" />
<rect x="30" y="110" width="10" height="10" fill="#EAE178" />
<rect x="40" y="110" width="10" height="10" fill="#EAE178" />
<rect x="50" y="110" width="10" height="10" fill="#90625D" />
<rect x="60" y="110" width="10" height="10" fill="#90625D" />
<rect x="70" y="110" width="10" height="10" fill="#A8A074" />
<rect x="80" y="110" width="10" height="10" fill="#A8A074" />
<rect x="90" y="110" width="10" height="10" fill="#A8A074" />
<rect x="100" y="110" width="10" height="10" fill="#A8A074" />
<rect x="110" y="110" width="10" height="10" fill="#90625D" />
<rect x="120" y="110" width="10" height="10" fill="#EEEE9B" />
<rect x="130" y="110" width="10" height="10" fill="#EEEE9B" />
<rect x="140" y="110" width="10" height="10" fill="#EEEE9B" />
<rect x="150" y="110" width="10" height="10" fill="#EEEE9B" />
<rect x="160" y="110" width="10" height="10" fill="#EEEE9B" />
<rect x="170" y="110" width="10" height="10" fill="#90625D" />
<rect x="180" y="110" width="10" height="10" fill="#90625D" />
<rect x="190" y="110" width="10" height="10" fill="#D4C169" />
<rect x="200" y="110" width="10" height="10" fill="#90625D" />
<rect x="240" y="110" width="10" height="10" fill="#7A5F6C" />
<rect x="250" y="110" width="10" height="10" fill="#7A5F6C" />
<rect x="260" y="110" width="10" height="10" fill="#B7B57F" />
<rect x="270" y="110" width="10" height="10" fill="#EAE178" />
<rect x="280" y="110" width="10" height="10" fill="#90625D" />
<rect x="10" y="120" width="10" height="10" fill="#7A5F6C" />
<rect x="20" y="120" width="10" height="10" fill="#B7B57F" />
<rect x="30" y="120" width="10" height="10" fill="#EAE178" />
<rect x="40" y="120" width="10" height="10" fill="#EAE178" />
<rect x="50" y="120" width="10" height="10" fill="#EAE178" />
<rect x="60" y="120" width="10" height="10" fill="#90625D" />
<rect x="70" y="120" width="10" height="10" fill="#A8A074" />
<rect x="80" y="120" width="10" height="10" fill="#A8A074" />
<rect x="90" y="120" width="10" height="10" fill="#A8A074" />
<rect x="100" y="120" width="10" height="10" fill="#A8A074" />
<rect x="110" y="120" width="10" height="10" fill="#A8A074" />
<rect x="120" y="120" width="10" height="10" fill="#90625D" />
<rect x="130" y="120" width="10" height="10" fill="#90625D" />
<rect x="140" y="120" width="10" height="10" fill="#90625D" />
<rect x="150" y="120" width="10" height="10" fill="#90625D" />
<rect x="160" y="120" width="10" height="10" fill="#90625D" />
<rect x="170" y="120" width="10" height="10" fill="#D4C169" />
<rect x="180" y="120" width="10" height="10" fill="#D4C169" />
<rect x="190" y="120" width="10" height="10" fill="#D4C169" />
<rect x="200" y="120" width="10" height="10" fill="#D4C169" />
<rect x="210" y="120" width="10" height="10" fill="#90625D" />
<rect x="230" y="120" width="10" height="10" fill="#7A5F6C" />
<rect x="240" y="120" width="10" height="10" fill="#B7B57F" />
<rect x="250" y="120" width="10" height="10" fill="#B7B57F" />
<rect x="260" y="120" width="10" height="10" fill="#EAE178" />
<rect x="270" y="120" width="10" height="10" fill="#90625D" />
<rect x="20" y="130" width="10" height="10" fill="#7A5F6C" />
<rect x="30" y="130" width="10" height="10" fill="#90625D" />
<rect x="40" y="130" width="10" height="10" fill="#90625D" />
<rect x="50" y="130" width="10" height="10" fill="#EAE178" />
<rect x="60" y="130" width="10" height="10" fill="#90625D" />
<rect x="70" y="130" width="10" height="10" fill="#A8A074" />
<rect x="80" y="130" width="10" height="10" fill="#A8A074" />
<rect x="90" y="130" width="10" height="10" fill="#A8A074" />
<rect x="100" y="130" width="10" height="10" fill="#A8A074" />
<rect x="110" y="130" width="10" height="10" fill="#A8A074" />
<rect x="120" y="130" width="10" height="10" fill="#A8A074" />
<rect x="130" y="130" width="10" height="10" fill="#A8A074" />
<rect x="140" y="130" width="10" height="10" fill="#D4C169" />
<rect x="150" y="130" width="10" height="10" fill="#D4C169" />
<rect x="160" y="130" width="10" height="10" fill="#D4C169" />
<rect x="170" y="130" width="10" height="10" fill="#D4C169" />
<rect x="180" y="130" width="10" height="10" fill="#D4C169" />
<rect x="190" y="130" width="10" height="10" fill="#D4C169" />
<rect x="200" y="130" width="10" height="10" fill="#D4C169" />
<rect x="210" y="130" width="10" height="10" fill="#D4C169" />
<rect x="220" y="130" width="10" height="10" fill="#90625D" />
<rect x="230" y="130" width="10" height="10" fill="#B7B57F" />
<rect x="240" y="130" width="10" height="10" fill="#EAE178" />
<rect x="250" y="130" width="10" height="10" fill="#EAE178" />
<rect x="260" y="130" width="10" height="10" fill="#EAE178" />
<rect x="270" y="130" width="10" height="10" fill="#90625D" />
<rect x="50" y="140" width="10" height="10" fill="#90625D" />
<rect x="60" y="140" width="10" height="10" fill="#90625D" />
<rect x="70" y="140" width="10" height="10" fill="#A8A074" />
<rect x="80" y="140" width="10" height="10" fill="#A8A074" />
<rect x="90" y="140" width="10" height="10" fill="#A8A074" />
<rect x="100" y="140" width="10" height="10" fill="#A8A074" />
<rect x="110" y="140" width="10" height="10" fill="#A8A074" />
<rect x="120" y="140" width="10" height="10" fill="#D4C169" />
<rect x="130" y="140" width="10" height="10" fill="#D4C169" />
<rect x="140" y="140" width="10" height="10" fill="#D4C169" />
<rect x="150" y="140" width="10" height="10" fill="#D4C169" />
<rect x="160" y="140" width="10" height="10" fill="#D4C169" />
<rect x="170" y="140" width="10" height="10" fill="#D4C169" />
<rect x="180" y="140" width="10" height="10" fill="#D4C169" />
<rect x="190" y="140" width="10" height="10" fill="#D4C169" />
<rect x="200" y="140" width="10" height="10" fill="#D4C169" />
<rect x="210" y="140" width="10" height="10" fill="#D4C169" />
<rect x="220" y="140" width="10" height="10" fill="#90625D" />
<rect x="230" y="140" width="10" height="10" fill="#EAE178" />
<rect x="240" y="140" width="10" height="10" fill="#EAE178" />
<rect x="250" y="140" width="10" height="10" fill="#90625D" />
<rect x="260" y="140" width="10" height="10" fill="#90625D" />
<rect x="70" y="150" width="10" height="10" fill="#7A5F6C" />
<rect x="80" y="150" width="10" height="10" fill="#A8A074" />
<rect x="90" y="150" width="10" height="10" fill="#90625D" />
<rect x="100" y="150" width="10" height="10" fill="#90625D" />
<rect x="110" y="150" width="10" height="10" fill="#D4C169" />
<rect x="120" y="150" width="10" height="10" fill="#D4C169" />
<rect x="130" y="150" width="10" height="10" fill="#D4C169" />
<rect x="140" y="150" width="10" height="10" fill="#D4C169" />
<rect x="150" y="150" width="10" height="10" fill="#D4C169" />
<rect x="160" y="150" width="10" height="10" fill="#D4C169" />
<rect x="170" y="150" width="10" height="10" fill="#D4C169" />
<rect x="180" y="150" width="10" height="10" fill="#D4C169" />
<rect x="190" y="150" width="10" height="10" fill="#D4C169" />
<rect x="200" y="150" width="10" height="10" fill="#90625D" />
<rect x="210" y="150" width="10" height="10" fill="#90625D" />
<rect x="220" y="150" width="10" height="10" fill="#EAE178" />
<rect x="230" y="150" width="10" height="10" fill="#EAE178" />
<rect x="240" y="150" width="10" height="10" fill="#90625D" />
<rect x="80" y="160" width="10" height="10" fill="#7A5F6C" />
<rect x="90" y="160" width="10" height="10" fill="#B7B57F" />
<rect x="100" y="160" width="10" height="10" fill="#B7B57F" />
<rect x="110" y="160" width="10" height="10" fill="#90625D" />
<rect x="120" y="160" width="10" height="10" fill="#D4C169" />
<rect x="130" y="160" width="10" height="10" fill="#D4C169" />
<rect x="140" y="160" width="10" height="10" fill="#D4C169" />
<rect x="150" y="160" width="10" height="10" fill="#D4C169" />
<rect x="160" y="160" width="10" height="10" fill="#D4C169" />
<rect x="170" y="160" width="10" height="10" fill="#D4C169" />
<rect x="180" y="160" width="10" height="10" fill="#D4C169" />
<rect x="190" y="160" width="10" height="10" fill="#90625D" />
<rect x="220" y="160" width="10" height="10" fill="#90625D" />
<rect x="230" y="160" width="10" height="10" fill="#90625D" />
<rect x="80" y="170" width="10" height="10" fill="#7A5F6C" />
<rect x="90" y="170" width="10" height="10" fill="#B7B57F" />
<rect x="100" y="170" width="10" height="10" fill="#EAE178" />
<rect x="110" y="170" width="10" height="10" fill="#90625D" />
<rect x="120" y="170" width="10" height="10" fill="#D4C169" />
<rect x="130" y="170" width="10" height="10" fill="#D4C169" />
<rect x="140" y="170" width="10" height="10" fill="#D4C169" />
<rect x="150" y="170" width="10" height="10" fill="#D4C169" />
<rect x="160" y="170" width="10" height="10" fill="#D4C169" />
<rect x="170" y="170" width="10" height="10" fill="#90625D" />
<rect x="180" y="170" width="10" height="10" fill="#90625D" />
<rect x="80" y="180" width="10" height="10" fill="#7A5F6C" />
<rect x="90" y="180" width="10" height="10" fill="#B7B57F" />
<rect x="100" y="180" width="10" height="10" fill="#EAE178" />
<rect x="110" y="180" width="10" height="10" fill="#90625D" />
<rect x="120" y="180" width="10" height="10" fill="#D4C169" />
<rect x="130" y="180" width="10" height="10" fill="#D4C169" />
<rect x="140" y="180" width="10" height="10" fill="#D4C169" />
<rect x="150" y="180" width="10" height="10" fill="#D4C169" />
<rect x="160" y="180" width="10" height="10" fill="#90625D" />
<rect x="170" y="180" width="10" height="10" fill="#B7B57F" />
<rect x="180" y="180" width="10" height="10" fill="#90625D" />
<rect x="70" y="190" width="10" height="10" fill="#7A5F6C" />
<rect x="80" y="190" width="10" height="10" fill="#B7B57F" />
<rect x="90" y="190" width="10" height="10" fill="#EAE178" />
<rect x="100" y="190" width="10" height="10" fill="#90625D" />
<rect x="120" y="190" width="10" height="10" fill="#90625D" />
<rect x="130" y="190" width="10" height="10" fill="#90625D" />
<rect x="140" y="190" width="10" height="10" fill="#90625D" />
<rect x="150" y="190" width="10" height="10" fill="#90625D" />
<rect x="160" y="190" width="10" height="10" fill="#B7B57F" />
<rect x="170" y="190" width="10" height="10" fill="#B7B57F" />
<rect x="180" y="190" width="10" height="10" fill="#90625D" />
<rect x="70" y="200" width="10" height="10" fill="#7A5F6C" />
<rect x="80" y="200" width="10" height="10" fill="#B7B57F" />
<rect x="90" y="200" width="10" height="10" fill="#EAE178" />
<rect x="100" y="200" width="10" height="10" fill="#90625D" />
<rect x="150" y="200" width="10" height="10" fill="#7A5F6C" />
<rect x="160" y="200" width="10" height="10" fill="#B7B57F" />
<rect x="170" y="200" width="10" height="10" fill="#EAE178" />
<rect x="180" y="200" width="10" height="10" fill="#EAE178" />
<rect x="190" y="200" width="10" height="10" fill="#90625D" />
<rect x="70" y="210" width="10" height="10" fill="#7A5F6C" />
<rect x="80" y="210" width="10" height="10" fill="#B7B57F" />
<rect x="90" y="210" width="10" height="10" fill="#EAE178" />
<rect x="100" y="210" width="10" height="10" fill="#EAE178" />
<rect x="110" y="210" width="10" height="10" fill="#90625D" />
<rect x="160" y="210" width="10" height="10" fill="#7A5F6C" />
<rect x="170" y="210" width="10" height="10" fill="#EAE178" />
<rect x="180" y="210" width="10" height="10" fill="#EAE178" />
<rect x="190" y="210" width="10" height="10" fill="#EAE178" />
<rect x="200" y="210" width="10" height="10" fill="#90625D" />
<rect x="80" y="220" width="10" height="10" fill="#90625D" />
<rect x="90" y="220" width="10" height="10" fill="#EAE178" />
<rect x="100" y="220" width="10" height="10" fill="#EAE178" />
<rect x="110" y="220" width="10" height="10" fill="#EAE178" />
<rect x="120" y="220" width="10" height="10" fill="#90625D" />
<rect x="170" y="220" width="10" height="10" fill="#90625D" />
<rect x="180" y="220" width="10" height="10" fill="#90625D" />
<rect x="190" y="220" width="10" height="10" fill="#EAE178" />
<rect x="200" y="220" width="10" height="10" fill="#90625D" />
<rect x="90" y="230" width="10" height="10" fill="#90625D" />
<rect x="100" y="230" width="10" height="10" fill="#EAE178" />
<rect x="110" y="230" width="10" height="10" fill="#EAE178" />
<rect x="120" y="230" width="10" height="10" fill="#90625D" />
<rect x="170" y="230" width="10" height="10" fill="#90625D" />
<rect x="180" y="230" width="10" height="10" fill="#EAE178" />
<rect x="190" y="230" width="10" height="10" fill="#EAE178" />
<rect x="200" y="230" width="10" height="10" fill="#90625D" />
<rect x="80" y="240" width="10" height="10" fill="#90625D" />
<rect x="90" y="240" width="10" height="10" fill="#EAE178" />
<rect x="100" y="240" width="10" height="10" fill="#EAE178" />
<rect x="110" y="240" width="10" height="10" fill="#90625D" />
<rect x="120" y="240" width="10" height="10" fill="#90625D" />
<rect x="170" y="240" width="10" height="10" fill="#90625D" />
<rect x="180" y="240" width="10" height="10" fill="#EAE178" />
<rect x="190" y="240" width="10" height="10" fill="#EAE178" />
<rect x="200" y="240" width="10" height="10" fill="#90625D" />
<rect x="80" y="250" width="10" height="10" fill="#90625D" />
<rect x="90" y="250" width="10" height="10" fill="#EAE178" />
<rect x="100" y="250" width="10" height="10" fill="#EAE178" />
<rect x="110" y="250" width="10" height="10" fill="#90625D" />
<rect x="160" y="250" width="10" height="10" fill="#90625D" />
<rect x="170" y="250" width="10" height="10" fill="#EAE178" />
<rect x="180" y="250" width="10" height="10" fill="#EAE178" />
<rect x="190" y="250" width="10" height="10" fill="#90625D" />
<rect x="80" y="260" width="10" height="10" fill="#90625D" />
<rect x="90" y="260" width="10" height="10" fill="#EAE178" />
<rect x="100" y="260" width="10" height="10" fill="#EAE178" />
<rect x="110" y="260" width="10" height="10" fill="#90625D" />
<rect x="160" y="260" width="10" height="10" fill="#90625D" />
<rect x="170" y="260" width="10" height="10" fill="#EAE178" />
<rect x="180" y="260" width="10" height="10" fill="#EAE178" />
<rect x="190" y="260" width="10" height="10" fill="#90625D" />
<rect x="90" y="270" width="10" height="10" fill="#90625D" />
<rect x="100" y="270" width="10" height="10" fill="#90625D" />
<rect x="160" y="270" width="10" height="10" fill="#90625D" />
<rect x="170" y="270" width="10" height="10" fill="#EAE178" />
<rect x="180" y="270" width="10" height="10" fill="#EAE178" />
<rect x="190" y="270" width="10" height="10" fill="#90625D" />
<rect x="170" y="280" width="10" height="10" fill="#90625D" />
<rect x="180" y="280" width="10" height="10" fill="#90625D" />
</svg>